<?xml version="1.0" encoding="UTF-8"?>
<svg id="Calque_2" data-name="Calque 2" xmlns="http://www.w3.org/2000/svg" viewBox="0 0 180.81 78.41">
  <g id="Capa_1" data-name="Capa 1">
    <path d="M68.57,54.92c2.25,0,4.72,.69,7.32,2.06,6.34,3.33,11.77,14.74,14.51,21.44,2.74-6.7,8.18-18.11,14.51-21.44,2.6-1.37,5.06-2.06,7.32-2.06,4.55,0,7.12,2.7,8.5,4.16l.29,.3c1.07,1.09,2.58,2.97,3.69,4.38,3.24-3.12,10.7-9.39,18.44-9.46h.17c3.96,0,7,1.24,9.03,3.67,3.14,3.77,2.6,8.92,2.23,10.96-.38,2.06-1.2,4.27-2.04,6.2,8.58-4.32,25.23-14.64,27.92-30.64,3.1-18.42-14.91-30.88-30.58-38.08-5-2.3-12.38-4.66-17.4-6.16,3.58,6.26,5.8,15.43-1.21,23.07-3.51,3.83-7.95,5.85-12.84,5.85-8.75,0-17.45-6.65-18.61-14.24-.75-4.91-1.16-10.58-1.38-14.94l-2.07,3.65c-.36,.64-1.05,1.05-1.78,1.01l-4.22-.08-4.14,.08c-.75,.03-1.42-.37-1.78-1.01L82.37,0c-.22,4.36-.63,10.02-1.38,14.94-1.16,7.58-9.86,14.24-18.61,14.24-4.89,0-9.33-2.02-12.84-5.85-7.01-7.64-4.79-16.81-1.21-23.07-5.02,1.5-12.4,3.86-17.4,6.16C15.27,13.62-2.75,26.07,.35,44.5c2.7,16,19.34,26.31,27.92,30.63-.85-1.93-1.67-4.14-2.04-6.2-.38-2.04-.91-7.19,2.23-10.96,2.03-2.44,5.07-3.67,9.03-3.67h.17c7.74,.07,15.2,6.34,18.44,9.46,1.1-1.41,2.62-3.29,3.69-4.38l.29-.3c1.38-1.45,3.95-4.15,8.5-4.15Z"/>
  </g>
</svg>